#!OML:ASF F:\VICON\USERDATA\INSTALL\rory3\rory3.ASF
:FULLY-SPECIFIED
:DEGREES
381
root -0.445562 25.2791 1.88904 -170.035 -3.08817 179.92
lowerback 7.88411 0.698849 -1.88687
upperback 1.42737 0.724116 2.04636
thorax -2.99465 0.335857 3.1084
lowerneck -14.7619 2.75585 -9.60692
upperneck 39.1505 1.76522 2.7921
head 16.3642 -1.71082 2.84557
rclavicle 6.55989e-015 1.15295e-014
rhumerus -28.5612 -2.24461 -80.516
rradius 45.5779
rwrist 15.9967
rhand -20.4064 2.8356
rfingers 7.12502
rthumb 5.94749 -27.0609
lclavicle 6.55989e-015 1.15295e-014
lhumerus -31.1375 9.829 81.4642
lradius 37.384
lwrist 3.85683
lhand -16.6967 26.5973
lfingers 7.12502
lthumb 9.52801 56.3619
rfemur 0.428449 2.34482 27.5078
rtibia 0
rfoot -7.86443 -3.25252
rtoes 19.5932
lfemur -72.3435 2.07017 -29.0311
ltibia 79.6186
lfoot -10.7531 1.60735
ltoes -11.0483
382
root -0.445156 25.2706 1.82246 -169.951 -3.13113 179.82
lowerback 7.87291 0.689766 -2.07726
upperback 1.41311 0.698349 1.98208
thorax -3.00288 0.326659 3.15189
lowerneck -14.7572 2.75173 -9.65475
upperneck 39.0658 1.76689 2.88236
head 16.315 -1.69209 2.89492
rclavicle 8.94531e-015 8.74653e-015
rhumerus -28.7864 -2.35292 -80.6329
rradius 45.7655
rwrist 16.0504
rhand -20.2899 2.52911
rfingers 7.12502
rthumb 6.05997 -27.3642
lclavicle 8.94531e-015 8.74653e-015
lhumerus -31.0505 9.79463 81.4055
lradius 36.9621
lwrist 3.49235
lhand -16.848 25.4015
lfingers 7.12502
lthumb 9.38198 55.1727
rfemur 0.596726 2.26641 27.426
rtibia 6.36111e-015
rfoot -7.96159 -3.17391
rtoes 19.5959
lfemur -72.1612 2.02618 -29.2059
ltibia 80.0027
lfoot -11.6821 1.33355
ltoes -9.16202
383
root -0.444508 25.2648 1.75743 -169.839 -3.19485 179.735
lowerback 7.85106 0.698194 -2.24448
upperback 1.42024 0.696478 1.91227
thorax -2.9843 0.327914 3.17407
lowerneck -14.8666 2.72817 -9.52397
upperneck 39.0273 1.78493 2.75272
head 16.3264 -1.67183 2.82088
rclavicle -1.98785e-016 1.51076e-014
rhumerus -28.913 -2.47514 -80.7376
rradius 45.8418
rwrist 16.0416
rhand -20.2872 2.24119
rfingers 7.12502
rthumb 6.06251 -27.6521
lclavicle -1.98785e-016 1.51076e-014
lhumerus -30.941 9.74142 81.3751
lradius 36.5405
lwrist 2.86917
lhand -17.3557 23.6612
lfingers 7.12502
lthumb 8.89207 53.4539
rfemur 0.706645 2.17406 27.3641
rtibia 1.27222e-014
rfoot -8.08513 -3.11773
rtoes 19.5317
lfemur -72.0149 1.9452 -29.3326
ltibia 80.3457
lfoot -12.4821 1.06148
ltoes -7.00457
384
root -0.444866 25.2599 1.69108 -169.671 -3.26269 179.756
lowerback 7.77353 0.692099 -2.301
upperback 1.39152 0.687774 1.8768
thorax -2.97039 0.32583 3.17022
lowerneck -14.9057 2.72567 -9.38465
upperneck 39.002 1.84076 2.53124
head 16.327 -1.65392 2.70871
rclavicle -5.1684e-015 -1.59028e-014
rhumerus -29.1157 -2.53669 -80.8109
rradius 45.9543
rwrist 16.0133
rhand -20.1926 2.12387
rfingers 7.12502
rthumb 6.1539 -27.7667
lclavicle -5.1684e-015 -1.59028e-014
lhumerus -30.9151 9.66599 81.3871
lradius 36.3015
lwrist 2.28576
lhand -17.7034 22.701
lfingers 7.12502
lthumb 8.55655 52.5076
rfemur 0.737892 2.10444 27.4106
rtibia 7.95139e-015
rfoot -8.21495 -3.03383
rtoes 19.126
lfemur -71.956 1.86685 -29.3291
ltibia 80.6184
lfoot -13.1476 1.01979
ltoes -6.24453
385
root -0.446016 25.2551 1.62339 -169.581 -3.34328 179.815
lowerback 7.74583 0.681987 -2.29127
upperback 1.42516 0.673595 1.84094
thorax -2.91855 0.317039 3.12898
lowerneck -14.9999 2.65513 -9.45756
upperneck 38.9141 1.78532 2.59023
head 16.3075 -1.66261 2.74145
rclavicle -1.78906e-015 -1.63003e-014
rhumerus -29.2964 -2.72987 -80.9125
rradius 46.1126
rwrist 16.093
rhand -19.9586 2.33477
rfingers 7.12502
rthumb 6.3798 -27.5491
lclavicle -1.78906e-015 -1.63003e-014
lhumerus -30.7623 9.59622 81.4098
lradius 36.2468
lwrist 2.23501
lhand -17.6738 23.0229
lfingers 7.12502
lthumb 8.58511 52.8284
rfemur 0.88211 2.02065 27.5098
rtibia -1.43125e-014
rfoot -8.3053 -2.99636
rtoes 18.5099
lfemur -71.8328 1.7487 -29.1742
ltibia 80.8096
lfoot -13.7071 1.23491
ltoes -6.46819
386
root -0.447373 25.2457 1.56059 -169.46 -3.49491 179.823
lowerback 7.7859 0.662684 -2.31322
upperback 1.44223 0.643801 1.79948
thorax -2.92082 0.301975 3.10122
lowerneck -15.1258 2.57206 -9.54151
upperneck 38.8099 1.71653 2.68632
head 16.2876 -1.66873 2.7914
rclavicle 6.4605e-015 1.98785e-015
rhumerus -29.5161 -2.83226 -81.0094
rradius 46.3112
rwrist 16.0511
rhand -19.908 2.36042
rfingers 7.12502
rthumb 6.4286 -27.522
lclavicle 6.4605e-015 1.98785e-015
lhumerus -30.5866 9.55121 81.4129
lradius 36.4105
lwrist 2.55208
lhand -17.1462 23.9324
lfingers 7.12502
lthumb 9.09425 53.7163
rfemur 0.986609 1.8613 27.5599
rtibia -6.36111e-015
rfoot -8.31196 -2.8852
rtoes 18.1915
lfemur -71.7872 1.55103 -29.0534
ltibia 80.9321
lfoot -14.0315 1.49522
ltoes -7.65205
387
root -0.449219 25.2405 1.49755 -169.208 -3.67772 179.761
lowerback 7.71005 0.618564 -2.3848
upperback 1.4319 0.581938 1.72688
thorax -2.88474 0.272766 3.07268
lowerneck -15.2419 2.5071 -9.53759
upperneck 38.6411 1.69168 2.71378
head 16.2308 -1.64484 2.80291
rclavicle 2.78299e-015 1.27222e-014
rhumerus -29.669 -2.81096 -81.1634
rradius 46.4482
rwrist 15.8653
rhand -20.1331 2.44599
rfingers 7.12502
rthumb 6.2113 -27.443
lclavicle 2.78299e-015 1.27222e-014
lhumerus -30.4107 9.52981 81.3587
lradius 36.4959
lwrist 2.74927
lhand -16.7735 24.1472
lfingers 7.12502
lthumb 9.45387 53.9152
rfemur 0.938285 1.67384 27.5266
rtibia 2.06736e-014
rfoot -8.3092 -2.784
rtoes 18.1449
lfemur -71.8537 1.28795 -29.0215
ltibia 81.0082
lfoot -14.29 1.59198
ltoes -8.60493
388
root -0.453561 25.2443 1.43213 -168.951 -3.82521 179.657
lowerback 7.62515 0.582043 -2.48165
upperback 1.36527 0.531771 1.65687
thorax -2.90293 0.252538 3.0598
lowerneck -15.2541 2.50769 -9.52681
upperneck 38.5842 1.72778 2.67647
head 16.2025 -1.62403 2.79159
rclavicle 1.77912e-014 1.07344e-014
rhumerus -29.8509 -2.77644 -81.2624
rradius 46.4782
rwrist 15.6316
rhand -20.1993 2.47487
rfingers 7.12502
rthumb 6.14737 -27.4159
lclavicle 1.77912e-014 1.07344e-014
lhumerus -30.3607 9.45713 81.3462
lradius 36.4715
lwrist 2.72149
lhand -16.749 24.0418
lfingers 7.12502
lthumb 9.47757 53.8087
rfemur 0.904674 1.51123 27.4302
rtibia 7.95139e-015
rfoot -8.36043 -2.75897
rtoes 17.7676
lfemur -71.8825 1.0627 -29.0942
ltibia 81.0612
lfoot -14.7202 1.6818
ltoes -8.49519
389
root -0.457388 25.2488 1.36327 -168.798 -3.85498 179.524
lowerback 7.63695 0.599832 -2.62444
upperback 1.33421 0.544851 1.57453
thorax -2.9431 0.262779 3.05351
lowerneck -15.3737 2.48598 -9.63458
upperneck 38.6305 1.7434 2.70188
head 16.2538 -1.62994 2.82763
rclavicle 2.98177e-015 -2.10712e-014
rhumerus -30.0461 -2.73282 -81.339
rradius 46.4698
rwrist 15.4362
rhand -20.1703 2.31723
rfingers 7.12502
rthumb 6.17538 -27.5728
lclavicle 2.98177e-015 -2.10712e-014
lhumerus -30.3206 9.31052 81.3809
lradius 36.5021
lwrist 2.66626
lhand -17.0144 24.057
lfingers 7.12502
lthumb 9.22146 53.8353
rfemur 1.02304 1.44238 27.2806
rtibia 1.59028e-015
rfoot -8.45906 -2.6714
rtoes 17.2734
lfemur -71.7999 0.997514 -29.2743
ltibia 81.156
lfoot -15.1588 1.89481
ltoes -8.26564
390
root -0.4616 25.2496 1.29697 -168.64 -3.85363 179.324
lowerback 7.68245 0.65089 -2.7876
upperback 1.32142 0.596854 1.42074
thorax -2.98547 0.291931 2.98035
lowerneck -15.4257 2.40426 -9.67081
upperneck 38.4208 1.70083 2.73574
head 16.1615 -1.61493 2.84457
rclavicle 8.54774e-015 1.39149e-014
rhumerus -30.2742 -2.89256 -81.4516
rradius 46.5499
rwrist 15.5076
rhand -20.3851 2.70619
rfingers 7.12502
rthumb 5.96807 -27.1898
lclavicle 8.54774e-015 1.39149e-014
lhumerus -30.1252 8.97588 81.4056
lradius 36.4272
lwrist 2.6941
lhand -17.2519 24.2163
lfingers 7.12502
lthumb 8.99224 54.0047
rfemur 1.11324 1.39016 27.0576
rtibia -1.90833e-014
rfoot -8.46927 -2.60846
rtoes 16.8797
lfemur -71.7261 0.978715 -29.5924
ltibia 81.2778
lfoot -15.4816 2.12151
ltoes -8.24744
391
root -0.466545 25.2563 1.23137 -168.46 -3.82468 179.258
lowerback 7.70343 0.695584 -2.8276
upperback 1.30354 0.651184 1.3065
thorax -3.0187 0.320718 2.87849
lowerneck -15.5123 2.35258 -9.78461
upperneck 38.2727 1.67131 2.90159
head 16.1038 -1.59392 2.93607
rclavicle -1.60022e-014 8.34896e-015
rhumerus -30.4136 -2.96342 -81.5862
rradius 46.5292
rwrist 15.5716
rhand -20.7769 3.04041
rfingers 7.12502
rthumb 5.58972 -26.8659
lclavicle -1.60022e-014 8.34896e-015
lhumerus -29.9035 8.8253 81.3998
lradius 36.2989
lwrist 2.59543
lhand -17.3248 24.4998
lfingers 7.12502
lthumb 8.92189 54.2912
rfemur 1.1359 1.39351 26.9557
rtibia -3.18055e-015
rfoot -8.4125 -2.52868
rtoes 17.0628
lfemur -71.6909 1.03342 -29.7669
ltibia 81.3912
lfoot -15.7323 2.16125
ltoes -8.29156
392
root -0.472638 25.2695 1.16856 -168.223 -3.70373 179.179
lowerback 7.71118 0.760321 -2.89899
upperback 1.24955 0.731373 1.18618
thorax -3.08392 0.364476 2.78525
lowerneck -15.6109 2.31698 -9.71318
upperneck 38.2299 1.66252 2.83342
head 16.1102 -1.58522 2.8951
rclavicle 8.34896e-015 1.98785e-015
rhumerus -30.567 -2.95607 -81.7319
rradius 46.5089
rwrist 15.6531
rhand -20.85 2.68476
rfingers 7.12502
rthumb 5.5192 -27.2234
lclavicle 8.34896e-015 1.98785e-015
lhumerus -29.7297 8.78985 81.3599
lradius 36.1515
lwrist 2.55031
lhand -17.2225 24.5745
lfingers 7.12502
lthumb 9.02062 54.3616
rfemur 1.08437 1.48927 26.8149
rtibia -1.27222e-014
rfoot -8.24126 -2.51068
rtoes 17.5104
lfemur -71.6857 1.14733 -29.968
ltibia 81.4303
lfoot -16.0133 2.27247
ltoes -7.93097
393
root -0.479042 25.2829 1.10349 -167.978 -3.60183 179.117
lowerback 7.69126 0.814105 -2.94085
upperback 1.18431 0.800562 1.07093
thorax -3.14409 0.402711 2.6818
lowerneck -15.5585 2.30957 -9.57447
upperneck 38.1063 1.70533 2.63372
head 16.0378 -1.56013 2.78957
rclavicle -1.22253e-014 7.55382e-015
rhumerus -30.7668 -2.88656 -81.8587
rradius 46.5567
rwrist 15.6775
rhand -20.5484 2.11087
rfingers 7.12502
rthumb 5.8104 -27.7895
lclavicle -1.22253e-014 7.55382e-015
lhumerus -29.643 8.86813 81.2656
lradius 36.0791
lwrist 2.38568
lhand -17.0715 24.5123
lfingers 7.12502
lthumb 9.16631 54.2931
rfemur 1.0272 1.57143 26.7058
rtibia 1.59028e-014
rfoot -8.05531 -2.55452
rtoes 17.4921
lfemur -71.6202 1.2303 -30.132
ltibia 81.3872
lfoot -16.4406 2.43174
ltoes -7.40652
394
root -0.488188 25.3007 1.03504 -167.794 -3.55334 179.112
lowerback 7.71109 0.870173 -2.83509
upperback 1.13379 0.881687 0.939052
thorax -3.2093 0.444219 2.47632
lowerneck -15.5653 2.28519 -9.58118
upperneck 38.0506 1.7102 2.59029
head 16.0124 -1.5554 2.77351
rclavicle -9.14409e-015 1.98785e-015
rhumerus -30.9049 -2.89144 -82.0065
rradius 46.4222
rwrist 15.6708
rhand -20.4719 2.17692
rfingers 7.12502
rthumb 5.88419 -27.7214
lclavicle -9.14409e-015 1.98785e-015
lhumerus -29.5593 8.87254 81.1582
lradius 35.995
lwrist 2.11547
lhand -16.9872 24.2966
lfingers 7.12502
lthumb 9.24765 54.0738
rfemur 1.06318 1.60492 26.6538
rtibia 3.18055e-015
rfoot -7.8842 -2.62129
rtoes 17.1368
lfemur -71.3914 1.27305 -30.208
ltibia 81.2513
lfoot -17.0992 2.56776
ltoes -7.77161
